<svg width="250" height="225" viewBox="0 0 250 225" fill="none" xmlns="http://www.w3.org/2000/svg">
<path d="M3.11211 0.962112C0.501953 3.02013 0 5.68048 0 17.0246C0.0501953 30.5773 1.85723 43.0258 6.32461 60.8953C11.2438 80.6221 16.966 93.974 23.3408 100.75C24.4451 101.955 25.3486 102.959 25.3486 103.059C25.3486 103.16 24.0938 105.469 22.5377 108.179C20.9816 110.94 18.8232 114.905 17.7691 117.014L15.8115 120.929H23.391H30.9705L27.6576 124.894C17.3174 137.293 7.88066 156.015 6.92695 165.954C6.77637 167.711 6.72617 169.116 6.82656 169.116C6.97715 169.116 8.98496 168.313 11.2939 167.309C15.6609 165.502 22.5377 163.595 24.9471 163.595H26.3023L25.5996 165.553C23.4412 171.676 21.9855 183.623 23.4914 183.021C42.5656 175.24 50.898 174.086 61.6398 177.75C67.8139 179.858 68.115 180.109 69.9723 184.878C76.0961 200.639 89.1971 214.694 103.252 220.617C110.129 223.528 114.194 224.381 122.477 224.683C131.06 224.984 136.18 224.281 142.906 221.821C158.768 216.049 172.371 201.894 179.448 183.824C180.904 180.159 181.305 179.507 183.414 178.202C187.68 175.491 190.09 174.939 197.017 174.939C204.395 174.989 209.415 176.144 218.601 179.908C221.763 181.163 224.825 182.368 225.327 182.519C226.23 182.82 226.28 182.569 225.979 177.348C225.779 173.885 225.226 170.321 224.473 167.661L223.219 163.495L225.929 163.796C229.192 164.147 236.069 166.305 239.281 167.912C240.586 168.564 241.791 169.116 241.941 169.116C242.443 169.116 242.192 164.749 241.389 161.085C239.381 151.498 231.2 136.238 222.164 125.346L218.55 120.929H226.13H233.659L231.451 116.512C230.246 114.102 228.088 110.137 226.682 107.677C225.277 105.218 224.122 103.11 224.122 102.959C224.122 102.859 225.176 101.554 226.531 100.098C234.061 91.7654 240.938 73.394 245.907 48.1457C248.718 33.8902 249.421 27.3649 249.471 16.7736C249.471 6.13223 249.019 3.72285 246.66 1.31348C245.305 -0.0417938 244.903 -0.142181 242.795 0.108795C237.123 0.761337 227.335 4.62637 213.581 11.5031C193.352 21.5924 174.88 33.5891 164.691 43.2768L160.725 46.9912L155.405 46.1379C146.721 44.632 138.639 44.1301 124.735 44.1301C110.781 44.1301 102.75 44.632 93.9154 46.1379L88.4441 47.0414L85.4826 44.0799C75.4436 34.0408 55.9678 21.3916 33.6811 10.449C23.5416 5.4295 16.0123 2.36758 10.4406 0.911926C5.62188 -0.29277 4.71836 -0.29277 3.11211 0.962112ZM27.1055 23.9516C39.5037 30.0252 57.6744 41.1184 67.6633 48.7982C69.9221 50.5049 72.0805 52.1613 72.4318 52.4625C72.984 52.8641 72.1809 53.5668 68.5166 55.675C59.2807 61.0961 49.091 70.3822 40.6582 81.0236C38.4496 83.7844 36.2912 86.6455 35.7893 87.298C34.9861 88.5529 34.9861 88.5529 34.183 87.549C32.5768 85.4408 27.8584 75.7029 25.1479 68.9266C19.1746 53.9182 13.6531 25.9594 15.6107 20.7893C16.2131 19.3336 19.3754 20.1869 27.1055 23.9516ZM233.659 20.9901C235.968 25.4072 230.396 53.7174 224.022 69.4787C221.261 76.4057 215.238 88.3522 214.585 88.2518C214.434 88.2518 212.527 85.8424 210.318 82.9311C201.785 71.6873 190.692 61.3973 180.904 55.675L176.336 53.0147L177.541 52.0609C191.596 40.9678 213.832 27.2645 226.28 21.994C231.501 19.7854 232.906 19.6348 233.659 20.9901ZM91.1045 96.0822C92.7107 96.9356 94.2166 98.592 95.4213 100.851C96.2244 102.357 96.375 103.762 96.375 110.639C96.375 117.516 96.2244 118.921 95.4213 120.427C93.2127 124.593 90.7531 126.099 86.085 126.099C81.4168 126.099 78.9572 124.593 76.7486 120.427C75.9455 118.921 75.7949 117.516 75.7949 110.639C75.7949 103.31 75.8953 102.407 76.8992 100.55C78.1541 98.1904 80.6137 95.9317 82.2199 95.5803C82.8223 95.4799 83.776 95.2791 84.3281 95.1285C85.834 94.8273 89.6488 95.3795 91.1045 96.0822ZM168.405 96.0822C170.012 96.9356 171.517 98.592 172.722 100.851C173.525 102.357 173.676 103.762 173.676 110.639C173.676 117.516 173.525 118.921 172.722 120.427C170.513 124.593 168.054 126.099 163.386 126.099C158.718 126.099 156.258 124.593 154.049 120.427C153.246 118.921 153.096 117.516 153.096 110.639C153.096 103.31 153.196 102.407 154.2 100.55C155.455 98.1904 157.914 95.9317 159.521 95.5803C160.123 95.4799 161.077 95.2791 161.629 95.1285C163.135 94.8273 166.95 95.3795 168.405 96.0822ZM139.292 180.912C146.922 181.264 147.323 181.364 147.323 183.422C147.323 188.191 136.23 202.647 129.002 207.215C124.484 210.076 121.372 208.971 114.496 202.045C107.669 195.268 102.147 186.886 102.147 183.322C102.147 181.264 102.85 181.113 114.194 180.661C122.778 180.31 127.697 180.36 139.292 180.912Z" fill="#ECECEC"/>
</svg>
