<svg width="23" height="22" viewBox="0 0 23 22" fill="none" xmlns="http://www.w3.org/2000/svg">
<path d="M20.9336 1.61719C21.5273 2.21094 21.9023 2.92187 22.0586 3.75C22.2227 4.57031 22.3047 5.48047 22.3047 6.48047V15.5859C22.3047 16.5938 22.2227 17.5078 22.0586 18.3281C21.9023 19.1484 21.5273 19.8594 20.9336 20.4609C20.332 21.0547 19.6172 21.4336 18.7891 21.5977C17.9609 21.7617 17.0469 21.8438 16.0469 21.8438H6.94141C5.94141 21.8438 5.02734 21.7617 4.19922 21.5977C3.37891 21.4336 2.66797 21.0547 2.06641 20.4609C1.46484 19.8594 1.08594 19.1484 0.929688 18.3281C0.773438 17.5078 0.695312 16.5938 0.695312 15.5859V6.45703C0.695312 5.47266 0.773438 4.57031 0.929688 3.75C1.09375 2.92969 1.47266 2.21875 2.06641 1.61719C2.66797 1.02344 3.37891 0.644531 4.19922 0.480469C5.02734 0.316406 5.93359 0.234375 6.91797 0.234375H16.0469C17.0469 0.234375 17.9609 0.316406 18.7891 0.480469C19.6172 0.644531 20.332 1.02344 20.9336 1.61719ZM20.418 6.16406C20.418 5.5625 20.3633 4.97266 20.2539 4.39453C20.1445 3.81641 19.9102 3.35156 19.5508 3C19.1992 2.64062 18.7305 2.40625 18.1445 2.29688C17.5664 2.17969 16.9766 2.12109 16.375 2.12109H6.66016C6.04297 2.12109 5.4375 2.17969 4.84375 2.29688C4.25781 2.40625 3.78906 2.63672 3.4375 2.98828C3.08594 3.34766 2.85547 3.82031 2.74609 4.40625C2.63672 4.98438 2.58203 5.58203 2.58203 6.19922V15.9141C2.58203 16.5156 2.63672 17.1055 2.74609 17.6836C2.85547 18.2617 3.08594 18.7266 3.4375 19.0781C3.79688 19.4297 4.26562 19.6641 4.84375 19.7812C5.42969 19.8984 6.02344 19.957 6.625 19.957H16.375C16.9766 19.957 17.5664 19.8984 18.1445 19.7812C18.7305 19.6719 19.1992 19.4375 19.5508 19.0781C19.9023 18.7266 20.1328 18.2617 20.2422 17.6836C20.3594 17.1055 20.418 16.5156 20.418 15.9141V6.16406ZM6.07422 11.0391C6.07422 10.7422 6.16406 10.5039 6.34375 10.3242C6.53125 10.1367 6.77734 10.043 7.08203 10.043H10.5273V6.59766C10.5273 6.30078 10.6172 6.05859 10.7969 5.87109C10.9766 5.68359 11.207 5.58984 11.4883 5.58984C11.7852 5.58984 12.0234 5.68359 12.2031 5.87109C12.3906 6.05078 12.4844 6.29297 12.4844 6.59766V10.043H15.9414C16.2383 10.043 16.4766 10.1367 16.6562 10.3242C16.8438 10.5039 16.9375 10.7422 16.9375 11.0391C16.9375 11.3203 16.8438 11.5508 16.6562 11.7305C16.4766 11.9102 16.2383 12 15.9414 12H12.4844V15.457C12.4844 15.7539 12.3906 15.9961 12.2031 16.1836C12.0234 16.3633 11.7852 16.4531 11.4883 16.4531C11.207 16.4531 10.9766 16.3633 10.7969 16.1836C10.6172 15.9961 10.5273 15.7539 10.5273 15.457V12H7.08203C6.78516 12 6.54297 11.9102 6.35547 11.7305C6.16797 11.5508 6.07422 11.3203 6.07422 11.0391Z" fill="#ECECEC" fill-opacity="0.5"/>
</svg>
