<svg width="11" height="10" viewBox="0 0 11 10" fill="none" xmlns="http://www.w3.org/2000/svg">
<path d="M5.5 9.95508C4.81966 9.95508 4.17839 9.82487 3.57617 9.56445C2.97721 9.30404 2.44824 8.94434 1.98926 8.48535C1.53027 8.02637 1.17057 7.4974 0.910156 6.89844C0.64974 6.29622 0.519531 5.65495 0.519531 4.97461C0.519531 4.36589 0.626953 3.78809 0.841797 3.24121C1.05664 2.69108 1.34961 2.19792 1.7207 1.76172C1.80859 1.6543 1.91113 1.59733 2.02832 1.59082C2.14876 1.58105 2.24967 1.61849 2.33105 1.70312C2.41243 1.78776 2.4515 1.88379 2.44824 1.99121C2.44499 2.09863 2.40755 2.19954 2.33594 2.29395C2.02669 2.65202 1.78581 3.06055 1.61328 3.51953C1.44076 3.97526 1.35286 4.46029 1.34961 4.97461C1.34961 5.55078 1.4554 6.08952 1.66699 6.59082C1.88184 7.09212 2.17806 7.5332 2.55566 7.91406C2.93652 8.29167 3.3776 8.58789 3.87891 8.80273C4.38346 9.01758 4.92383 9.125 5.5 9.125C6.07617 9.125 6.61491 9.01758 7.11621 8.80273C7.61751 8.58789 8.05697 8.29167 8.43457 7.91406C8.81543 7.5332 9.11165 7.09212 9.32324 6.59082C9.53809 6.08952 9.64551 5.55078 9.64551 4.97461C9.64551 4.39844 9.53809 3.8597 9.32324 3.3584C9.11165 2.85384 8.81543 2.41276 8.43457 2.03516C8.05697 1.6543 7.61751 1.35807 7.11621 1.14648C6.61491 0.931641 6.07454 0.824219 5.49512 0.824219L5.83691 0.394531V2.29395C5.83691 2.40137 5.80273 2.49251 5.73438 2.56738C5.66927 2.639 5.58301 2.6748 5.47559 2.6748C5.37142 2.6748 5.28516 2.639 5.2168 2.56738C5.15169 2.49251 5.11914 2.40137 5.11914 2.29395V0.404297C5.11914 0.277344 5.15007 0.17806 5.21191 0.106445C5.27702 0.0315755 5.37467 -0.00585938 5.50488 -0.00585938C6.18522 -0.00585938 6.82487 0.124349 7.42383 0.384766C8.02604 0.645182 8.55501 1.00488 9.01074 1.46387C9.46973 1.92285 9.82943 2.45345 10.0898 3.05566C10.3503 3.65462 10.4805 4.29427 10.4805 4.97461C10.4805 5.65495 10.3503 6.29622 10.0898 6.89844C9.82943 7.4974 9.46973 8.02637 9.01074 8.48535C8.55176 8.94434 8.02116 9.30404 7.41895 9.56445C6.81999 9.82487 6.18034 9.95508 5.5 9.95508ZM5.5 5.76074C5.35352 5.76074 5.22168 5.72493 5.10449 5.65332C4.9873 5.57845 4.88965 5.48079 4.81152 5.36035L3.18555 2.92871C3.13021 2.84408 3.11393 2.76758 3.13672 2.69922C3.16276 2.6276 3.21159 2.57878 3.2832 2.55273C3.35482 2.52669 3.42969 2.54297 3.50781 2.60156L5.9541 4.33008C6.05501 4.40169 6.13639 4.49447 6.19824 4.6084C6.26009 4.71908 6.29102 4.84115 6.29102 4.97461C6.29102 5.19271 6.21289 5.37826 6.05664 5.53125C5.90365 5.68424 5.7181 5.76074 5.5 5.76074Z" fill="#ECECEC" fill-opacity="0.5"/>
</svg>
